<?xml version="1.0" standalone="no"?>
<!DOCTYPE svg PUBLIC "-//W3C//DTD SVG 1.1//EN" "http://www.w3.org/Graphics/SVG/1.1/DTD/svg11.dtd" >
<svg xmlns="http://www.w3.org/2000/svg">
<metadata>
Created by FontPrep 20130207 at Fri Sep  5 21:04:06 2014
 By Stephen Nixon
copyright missing
</metadata>
<defs>
<font id="9b756e187e336331577f62133e62c59e" horiz-adv-x='1024' >
  <font-face 
    font-family="WarehouseGothic1.1.2-Rg"
    font-weight="400"
    font-stretch="normal"
    units-per-em="2048"
    panose-1="0 0 5 0 0 0 0 0 0 0"
    ascent="1600"
    descent="-448"
    x-height="1088"
    cap-height="1472"
    bbox="-60 -416 2352 1706"
    underline-thickness="100"
    underline-position="-100"
    unicode-range="U+0020-25CA"
  />
<missing-glyph horiz-adv-x="1000" 
d="M100 1210v-1020l340 510zM160 100h680l-340 510zM560 700l340 -510v1020zM500 790l340 510h-680zM0 0v1400h1000v-1400h-1000z" />
    <glyph glyph-name="ellipsis" unicode="&#x2e;&#x2e;&#x2e;" horiz-adv-x="1620" 
d="M1230 -22q-46 0 -77 31t-31 77t31 77t77 31t78 -32t32 -76t-32 -76t-78 -32zM730 -22q-46 0 -77 31t-31 77t31 77t77 31t78 -32t32 -76t-32 -76t-78 -32zM230 -22q-46 0 -77 31t-31 77t31 77t77 31t77 -31t31 -77t-31 -77t-77 -31z" />
    <glyph glyph-name="f_f" unicode="ff" horiz-adv-x="1302" 
d="M1099 1350q-49 0 -71 -39t-22 -133v-90h232v-138h-232v-950h-152v1184q0 310 238 310q92 0 184 -46l-32 -132q-96 34 -145 34zM220 1088v96q0 310 238 310q92 0 184 -46l-32 -132q-96 34 -144 34t-71 -40t-23 -132v-90h226v-138h-226v-950h-152v950h-148v138h148z" />
    <glyph glyph-name="f_f_f" unicode="fff" horiz-adv-x="1986" 
d="M1728 1350q-52 0 -74 -39t-22 -133v-90h232v-138h-232v-950h-152v1184q0 310 236 310q94 0 186 -46l-34 -132q-88 34 -140 34zM854 0v1184q0 310 238 310q92 0 184 -46l-32 -132q-96 34 -144 34t-71 -40t-23 -132v-90h232v-138h-232v-950h-152zM234 1088v96
q0 310 236 310q94 0 186 -46l-32 -132q-96 34 -145 34t-71 -39t-22 -133v-90h228v-138h-228v-950h-152v950h-148v138h148z" />
    <glyph glyph-name="f_f_l" unicode="ffl" horiz-adv-x="1906" 
d="M1658 -14q-182 0 -182 202v1286h154v-1278q0 -74 58 -74t134 66l60 -108q-104 -94 -224 -94zM854 0v1184q0 310 238 310q66 0 168 -14v-140q-54 10 -128 10t-100 -39t-26 -133v-90h226v-138h-226v-950h-152zM234 1088v96q0 310 236 310q94 0 186 -46l-32 -132
q-96 34 -145 34t-71 -39t-22 -133v-90h228v-138h-228v-950h-152v950h-148v138h148z" />
    <glyph glyph-name="f_l" unicode="fl" horiz-adv-x="1334" 
d="M1090 -16q-180 0 -180 204v1284h152v-1276q0 -76 58 -76t136 68l58 -110q-100 -94 -224 -94zM232 1088v96q0 310 238 310q68 0 170 -14v-140q-54 10 -129 10t-100 -39t-25 -133v-90h226v-138h-226v-950h-154v950h-142v138h142z" />
    <glyph glyph-name="r_f" unicode="rf" horiz-adv-x="1404" 
d="M328 1088v-168q120 184 296 184q76 0 122 -18l-40 -146q-44 16 -110 16t-127 -44t-141 -150v-762h-154v1088h154zM1141 1350q-49 0 -71 -39t-22 -133v-90h226v-138h-226v-950h-152v1184q0 310 238 310q92 0 184 -46l-32 -132q-96 34 -145 34z" />
    <glyph glyph-name="r_t" unicode="rt" horiz-adv-x="1396" 
d="M328 1088v-168q120 184 296 184q76 0 122 -18l-40 -146q-44 16 -110 16t-127 -44t-141 -150v-762h-154v1088h154zM1094 -16q-198 0 -198 200v1160h152v-256h266v-138h-266v-752q0 -80 66 -80q76 0 162 76l52 -112q-106 -98 -234 -98z" />
    <glyph glyph-name=".notdef" horiz-adv-x="1000" 
d="M100 1210v-1020l340 510zM160 100h680l-340 510zM560 700l340 -510v1020zM500 790l340 510h-680zM0 0v1400h1000v-1400h-1000z" />
    <glyph glyph-name=".null" horiz-adv-x="0" 
 />
    <glyph glyph-name="nonmarkingreturn" horiz-adv-x="682" 
 />
    <glyph glyph-name="space" unicode=" " horiz-adv-x="592" 
 />
    <glyph glyph-name="exclam" unicode="!" horiz-adv-x="574" 
d="M290 -18q-40 0 -69 29t-29 69t29 68t69 28t69 -29t29 -68t-29 -68t-69 -29zM208 1478h162v-538l-24 -568h-114l-24 568v538z" />
    <glyph glyph-name="quotedbl" unicode="&#x22;" horiz-adv-x="952" 
d="M744 1460v-218l-22 -244h-114l-22 244v218h158zM366 1460v-218l-20 -244h-116l-22 244v218h158z" />
    <glyph glyph-name="numbersign" unicode="#" horiz-adv-x="1740" 
d="M1038 522l70 428h-434l-70 -428h434zM1588 950h-322l-70 -428h312v-142h-334l-62 -380h-158l62 380h-434l-62 -380h-158l62 380h-274v142h296l70 428h-284v140h306l62 382h158l-62 -382h434l62 382h158l-62 -382h300v-140z" />
    <glyph glyph-name="dollar" unicode="$" horiz-adv-x="1108" 
d="M874 371q0 115 -57 166t-203 93l-44 -524q144 8 224 79t80 186zM264 1054q0 -92 65 -146t189 -90l40 472h-18q-138 0 -207 -72t-69 -164zM1030 373q0 -179 -123 -291t-349 -112l-14 -160h-112l14 166q-160 20 -251 95t-141 203l114 86q50 -114 115 -174t175 -74l46 548
l-24 6q-370 92 -370 380q0 174 113 276t315 102h32l14 176h112l-16 -188q208 -38 318 -198l-110 -84q-86 118 -220 148l-40 -490l6 -2q206 -54 301 -144t95 -269z" />
    <glyph glyph-name="percent" unicode="%" horiz-adv-x="1674" 
d="M1238 102q86 0 145 60t59 146t-59 146t-145 60t-146 -60t-60 -146t60 -146t146 -60zM1238 -16q-134 0 -229 95t-95 229t95 229t229 95t229 -95t95 -229t-95 -229t-229 -95zM442 962q86 0 146 60t60 146t-60 146t-146 60t-146 -60t-60 -146t60 -146t146 -60zM1316 1472
h158l-1114 -1472h-158zM442 844q-134 0 -229 95t-95 229t95 229t229 95t229 -95t95 -229t-95 -229t-229 -95z" />
    <glyph glyph-name="ampersand" unicode="&#x26;" horiz-adv-x="1320" 
d="M496 122q232 0 382 154l-346 514q-352 -78 -352 -382q0 -128 82 -207t234 -79zM496 -30q-228 0 -355 118t-127 310t111 325t327 185l-306 450l32 120h924v-134h-766l642 -930q96 170 144 444l136 -68q-66 -322 -188 -508l194 -282h-198l-102 150q-180 -180 -468 -180z
" />
    <glyph glyph-name="quotesingle" unicode="'" horiz-adv-x="576" 
d="M366 1460v-218l-20 -244h-116l-22 244v218h158z" />
    <glyph glyph-name="parenleft" unicode="(" horiz-adv-x="704" 
d="M302 624q0 -286 106 -479t304 -329l-58 -132q-104 64 -186 138t-162 186t-124 269t-44 347t44 346t124 266t162 184t186 138l58 -132q-410 -274 -410 -802z" />
    <glyph glyph-name="parenright" unicode=")" horiz-adv-x="704" 
d="M566 621q0 -153 -31 -287t-80 -229t-120 -179t-137 -137t-148 -105l-58 132q408 278 408 805t-408 805l58 132q82 -52 148 -105t137 -137t120 -179t80 -229t31 -287z" />
    <glyph glyph-name="asterisk" unicode="*" horiz-adv-x="980" 
d="M792 1324h-204l110 -186l-118 -40l-96 166l-98 -166l-116 40l110 186h-192v118h192l-110 188l122 28l92 -156l92 156l122 -28l-110 -188h204v-118z" />
    <glyph glyph-name="plus" unicode="+" 
d="M1070 710v-140h-398v-400h-142v400h-400v140h400v402h142v-402h398z" />
    <glyph glyph-name="comma" unicode="," horiz-adv-x="442" 
d="M320 24q0 -126 -126 -284l-112 32q80 126 80 182q0 46 -64 46l62 168q160 -18 160 -144z" />
    <glyph glyph-name="hyphen" unicode="-" horiz-adv-x="786" 
d="M678 684v-136h-572v136h572z" />
    <glyph glyph-name="period" unicode="." horiz-adv-x="460" 
d="M230 -14q-46 0 -77 31t-31 77t31 77t77 31t77 -31t31 -77t-31 -77t-77 -31z" />
    <glyph glyph-name="slash" unicode="/" horiz-adv-x="1006" 
d="M1034 1604l-966 -1916l-128 14l960 1902h134z" />
    <glyph glyph-name="zero" unicode="0" 
d="M616 1356q-134 0 -227 -150t-93 -469t93 -470t227 -151q316 0 316 620t-316 620zM615 -22q-215 0 -346 188t-131 571t131 570t346 187t346 -187t131 -570t-131 -571t-346 -188z" />
    <glyph glyph-name="one" unicode="1" horiz-adv-x="686" 
d="M506 1472v-1472h-162v1198q-76 -82 -218 -120l-32 144q170 38 294 250h118z" />
    <glyph glyph-name="two" unicode="2" 
d="M326 136h740v-136h-902q-2 44 -2 130q0 180 64 265t264 229l24 18q32 24 102 74t93 67t68 55t60 59t43 64t28 147t-81 174t-217 70q-214 0 -332 -196l-120 82q66 114 185 182t269 68q232 0 343 -114t111 -283t-105 -283q-57 -62 -139 -127t-125 -94q-250 -169 -309 -239
q-58 -70 -62 -192v-20z" />
    <glyph glyph-name="three" unicode="3" 
d="M1086 404q0 -182 -119 -303t-363 -121q-180 0 -292 70t-192 204l110 94q78 -128 159 -178t222 -50t229 73t88 214t-125 217t-299 78q-72 0 -110 -6l18 146q36 -4 119 -4t163 23t142 89t62 170t-77 170t-202 66t-201 -42t-160 -146l-100 102q180 224 454 224
q214 0 331 -111t117 -265q0 -248 -276 -344q140 -44 221 -140t81 -230z" />
    <glyph glyph-name="four" unicode="4" horiz-adv-x="1180" 
d="M712 534v430q0 186 8 348l-476 -778h468zM1016 402h-146v-402h-158v402h-646v118l596 952h208v-938h146v-132z" />
    <glyph glyph-name="five" unicode="5" 
d="M649 918q179 0 306 -124t127 -337t-128 -349t-372 -136q-166 0 -277 76t-193 228l124 76q66 -128 151 -184t218 -56t226 90t93 248t-87 246t-244 88t-291 -108l-122 24v772h816v-136h-656v-492q130 74 309 74z" />
    <glyph glyph-name="six" unicode="6" 
d="M632 120q136 0 206 94t70 243t-72 236t-198 87q-172 0 -336 -178q38 -482 330 -482zM648 918q194 0 306 -123t112 -338t-123 -346t-299 -131q-508 0 -508 772q0 206 44 356t121 231q147 155 359 155q136 0 218 -50t152 -150l-120 -82q-52 78 -110 111t-138 33
q-174 0 -269 -154t-97 -438q158 154 352 154z" />
    <glyph glyph-name="seven" unicode="7" horiz-adv-x="986" 
d="M952 1472v-108q-248 -264 -355 -576t-107 -616q0 -118 6 -172h-166q0 394 87 714t329 622h-714v136h920z" />
    <glyph glyph-name="eight" unicode="8" 
d="M609 114q127 0 215 81t88 218t-89 223t-215 86t-218 -87t-92 -223t92 -217t219 -81zM606 1362q-112 0 -191 -62t-79 -185t83 -192t186 -69t186 68t83 191t-78 186t-190 63zM1072 410q0 -198 -136 -314t-331 -116t-331 115t-136 315q0 134 66 232t174 150q-90 50 -143 134
t-53 200t69 205q126 163 355 163q160 0 291 -97t131 -279q0 -108 -53 -192t-143 -134q108 -52 174 -150t66 -232z" />
    <glyph glyph-name="nine" unicode="9" 
d="M564 698q174 0 336 178q-38 480 -330 480q-136 0 -206 -93t-70 -242t72 -236t198 -87zM558 1498q508 0 508 -772q0 -206 -44 -356t-121 -231q-147 -155 -359 -155q-138 0 -219 49t-151 151l120 80q52 -78 110 -111t138 -33q176 0 270 154t96 440q-160 -156 -353 -156
t-305 123t-112 339t123 347t299 131z" />
    <glyph glyph-name="colon" unicode=":" horiz-adv-x="498" 
d="M169 -14q-45 0 -77 31t-32 76t32 76t77 31t77 -31t32 -75t-32 -76t-77 -32zM169 690q-45 0 -77 31t-32 77t32 77t77 31t77 -32t32 -76t-32 -76t-77 -32z" />
    <glyph glyph-name="semicolon" unicode=";" horiz-adv-x="636" 
d="M410 24q0 -126 -126 -284l-112 32q80 126 80 182q0 46 -64 46l62 168q160 -18 160 -144zM297 690q-45 0 -77 32t-32 76t32 76t77 32t77 -32t32 -76t-32 -76t-77 -32z" />
    <glyph glyph-name="less" unicode="&#x3c;" 
d="M1110 1142v-146l-848 -344l848 -346v-146l-1018 414v154z" />
    <glyph glyph-name="equal" unicode="=" 
d="M130 540h940v-140h-940v140zM130 994h940v-140h-940v140z" />
    <glyph glyph-name="greater" unicode="&#x3e;" 
d="M90 1190l1018 -414v-154l-1018 -414v146l848 346l-848 344v146z" />
    <glyph glyph-name="question" unicode="?" horiz-adv-x="1104" 
d="M539 -16q-45 0 -77 31t-32 76t31 76t77 31t78 -32t32 -76t-32 -75t-77 -31zM432 498q0 144 160 270q126 104 174 173t48 184t-84 181t-206 66q-222 0 -336 -208l-124 72q68 124 187 197t279 73q214 0 329 -106t115 -267t-59 -253t-217 -212q-134 -108 -134 -214
q0 -40 14 -82h-118q-28 68 -28 126z" />
    <glyph glyph-name="at" unicode="@" horiz-adv-x="1866" 
d="M835 204q107 0 231 124v2l66 396q-106 112 -208 112t-173 -85t-94 -233t24 -232t154 -84zM986 1300q322 0 518 -191t192 -477t-120 -419t-295 -133t-213 124q-134 -126 -266 -126q-178 0 -245 134t-38 320t125 309t262 123q130 0 246 -118l18 106h148l-106 -606
q-14 -90 2 -128t84 -38q120 0 206 114t86 345t-171 394t-443 163t-483 -198t-211 -490t167 -481t430 -189t447 102l48 -86q-214 -116 -494 -116q-316 0 -518 215t-196 551q4 236 120 420t301 280t399 96z" />
    <glyph glyph-name="A" unicode="A" horiz-adv-x="1266" 
d="M888 532l-262 788l-254 -788h516zM932 396h-604l-128 -396h-172l502 1472h194l514 -1472h-174z" />
    <glyph glyph-name="B" unicode="B" horiz-adv-x="1290" 
d="M340 134h350q162 0 252 73t90 206t-89 212t-241 79h-362v-570zM702 1338h-362v-502h332q120 0 208 64t88 206q0 84 -46 139q-78 93 -220 93zM1196 424q0 -214 -130 -319t-354 -105h-536v1472h582q154 0 263 -98t109 -258q0 -110 -52 -200t-158 -136q120 -28 198 -117
t78 -239z" />
    <glyph glyph-name="C" unicode="C" horiz-adv-x="1292" 
d="M1236 272q-151 -288 -466 -288q-146 0 -254 43t-201 129t-150 236t-57 344t57 344t150 236q186 172 425 172q176 0 295 -67t201 -223l-130 -82q-108 226 -362 226q-192 0 -330 -163t-138 -443t138 -443t330 -163q130 0 217 52t145 172z" />
    <glyph glyph-name="D" unicode="D" horiz-adv-x="1408" 
d="M340 138h292q199 0 341 123q75 65 118 187t41 288t-46 286t-117 186q-139 126 -337 126h-292v-1196zM176 1472h456q206 0 367 -94q301 -176 301 -659q0 -185 -54 -334t-150 -230q-184 -155 -464 -155h-456v1472z" />
    <glyph glyph-name="E" unicode="E" horiz-adv-x="1204" 
d="M1096 1324h-756v-518h640v-144h-640v-516h756v-146h-920v1472h920v-148z" />
    <glyph glyph-name="F" unicode="F" horiz-adv-x="1130" 
d="M1050 1336h-710v-544h654v-138h-654v-654h-164v1472h874v-136z" />
    <glyph glyph-name="G" unicode="G" horiz-adv-x="1460" 
d="M1394 726v-136h-100v-354q-102 -140 -231 -196t-284 -56t-263 43t-202 129t-150 236t-56 344t56 343t150 236q187 173 426 173q194 0 324 -69t218 -223l-144 -76q-68 120 -163 172t-235 52q-188 0 -326 -164t-138 -444t138 -444t326 -164q268 0 390 158v304h-334v136h598
z" />
    <glyph glyph-name="H" unicode="H" horiz-adv-x="1406" 
d="M1066 1472h164v-1472h-164v674h-726v-674h-164v1472h164v-650h726v650z" />
    <glyph glyph-name="I" unicode="I" horiz-adv-x="710" 
d="M642 1334h-204v-1196h204v-138h-574v138h206v1196h-206v138h574v-138z" />
    <glyph glyph-name="J" unicode="J" horiz-adv-x="1052" 
d="M948 1472v-1036q0 -212 -124 -339t-340 -127q-330 0 -460 312l132 84q92 -254 330 -254q132 0 216 83t84 241v1036h162z" />
    <glyph glyph-name="K" unicode="K" horiz-adv-x="1254" 
d="M340 0h-164v1472h164v-820l626 820h204l-566 -722l624 -750h-204l-516 628l-168 -216v-412z" />
    <glyph glyph-name="L" unicode="L" horiz-adv-x="1026" 
d="M340 150h658v-150h-822v1472h164v-1322z" />
    <glyph glyph-name="M" unicode="M" horiz-adv-x="1644" 
d="M1468 1472v-1472h-158v1232l-478 -790h-18l-480 790v-1232h-158v1472h180l466 -766l464 766h182z" />
    <glyph glyph-name="N" unicode="N" horiz-adv-x="1440" 
d="M1100 1472h164v-1472h-164v6l-760 1222v-1228h-164v1472h200l724 -1196v1196z" />
    <glyph glyph-name="O" unicode="O" horiz-adv-x="1480" 
d="M740 128q188 0 326 164t138 444t-138 444t-326 164t-326 -164t-138 -444t138 -444t326 -164zM1372 737q0 -193 -56 -343t-149 -236q-188 -174 -427 -174h-2q-240 0 -425 173q-93 87 -149 236t-56 342t56 343t149 236t202 130t225 44t225 -43t202 -130t149 -236t56 -342z
" />
    <glyph glyph-name="P" unicode="P" horiz-adv-x="1268" 
d="M340 736h320q356 0 356 296q0 302 -356 302h-320v-598zM176 1472h484q256 0 388 -117t132 -321t-132 -320t-388 -116h-320v-598h-164v1472z" />
    <glyph glyph-name="Q" unicode="Q" horiz-adv-x="1480" 
d="M1204 736q0 280 -138 444t-326 164t-326 -164t-138 -444t138 -444t326 -164q40 0 90 10l-118 226h160l88 -168q110 72 177 211t67 329zM1372 705q0 -225 -93 -395t-247 -252l100 -192h-160l-72 140q-84 -22 -160 -22h-2q-240 0 -425 173q-93 87 -149 236t-56 342t56 343
t149 236t202 130t225 44t225 -43t202 -130t149 -236t56 -374z" />
    <glyph glyph-name="R" unicode="R" horiz-adv-x="1328" 
d="M340 736h320q356 0 356 296q0 302 -356 302h-320v-598zM660 598h-320v-598h-164v1472h484q256 0 388 -117t132 -323q0 -148 -72 -252t-214 -150l354 -630h-182l-330 600q-24 -2 -76 -2z" />
    <glyph glyph-name="S" unicode="S" horiz-adv-x="1268" 
d="M1166 404q0 -194 -143 -308t-372 -114t-356 82t-209 238l124 82q74 -134 169 -198t256 -64t264 76t103 215t-97 194t-375 103q-204 38 -297 133t-93 266t132 277t330 106t323 -57t211 -191l-130 -88q-56 98 -146 146t-244 48t-233 -73t-79 -160t22 -120t35 -51t45 -33
t49 -24t61 -19t63 -14t73 -13t74 -13q226 -42 333 -137t107 -289z" />
    <glyph glyph-name="T" unicode="T" horiz-adv-x="1058" 
d="M1030 1472v-144h-420v-1328h-164v1328h-418v144h1002z" />
    <glyph glyph-name="U" unicode="U" horiz-adv-x="1280" 
d="M1178 1472v-1042q0 -214 -135 -337t-399 -123t-401 123t-137 337v1042h166v-1042q0 -320 371 -320t371 320v1042h164z" />
    <glyph glyph-name="V" unicode="V" horiz-adv-x="1224" 
d="M1196 1472l-486 -1472h-196l-486 1472h158l428 -1274l426 1274h156z" />
    <glyph glyph-name="W" unicode="W" horiz-adv-x="1694" 
d="M1668 1472l-340 -1472h-180l-302 1218l-302 -1218h-178l-338 1472h162l272 -1206l300 1206h170l300 -1208l274 1208h162z" />
    <glyph glyph-name="X" unicode="X" horiz-adv-x="1184" 
d="M962 0l-382 606l-362 -606h-188l460 750l-456 722h190l368 -584l348 584h188l-446 -726l470 -746h-190z" />
    <glyph glyph-name="Y" unicode="Y" horiz-adv-x="1154" 
d="M658 0h-162v644l-468 828h182l368 -676l368 676h182l-470 -830v-642z" />
    <glyph glyph-name="Z" unicode="Z" horiz-adv-x="1258" 
d="M1136 144v-144h-1014v110l804 1218h-774v144h984v-110l-798 -1218h798z" />
    <glyph glyph-name="bracketleft" unicode="[" horiz-adv-x="758" 
d="M666 1394h-358v-1570h358v-134h-520v1838h520v-134z" />
    <glyph glyph-name="backslash" unicode="\" horiz-adv-x="1006" 
d="M1064 -298l-128 -14l-966 1916h136z" />
    <glyph glyph-name="asciicircum" unicode="^" 
d="M1120 610h-150l-370 682l-372 -682h-152l504 894h38z" />
    <glyph glyph-name="underscore" unicode="_" 
d="M1204 -182v-138h-1208v138h1208z" />
    <glyph glyph-name="a" unicode="a" horiz-adv-x="1090" 
d="M455 112q91 0 185 49t154 135v236h-216q-166 0 -249 -63t-83 -162t59 -147t150 -48zM596 1108q344 0 346 -406v-702h-148v150q-60 -78 -158 -122t-210 -44q-158 0 -242 86t-84 230q0 176 128 264t366 88h200v86q0 240 -218 240q-162 0 -366 -116l-54 122q220 124 440 124
z" />
    <glyph glyph-name="b" unicode="b" horiz-adv-x="1180" 
d="M600 124q138 0 219 109t81 313t-81 313t-220 109t-273 -166v-514q136 -164 274 -164zM636 1104q142 0 239 -82q177 -150 177 -473t-177 -478q-97 -85 -239 -85q-186 0 -310 140v-126h-152v1472h152v-506q122 138 310 138z" />
    <glyph glyph-name="c" unicode="c" horiz-adv-x="1038" 
d="M614 -14q-234 0 -360 160t-126 398t126 398t360 160q114 0 195 -39t153 -125l-86 -110q-34 54 -100 99t-160 43q-144 -4 -242 -123t-98 -303t98 -303t242 -123q168 -2 262 140l84 -108q-72 -86 -153 -125t-195 -39z" />
    <glyph glyph-name="d" unicode="d" horiz-adv-x="1178" 
d="M579 120q137 0 273 164v520q-138 160 -274 160t-217 -109t-81 -313t81 -313t218 -109zM852 1472h152v-1472h-152v120q-124 -136 -308 -136q-142 0 -239 82q-177 150 -177 473t177 478q97 85 239 85q182 0 308 -138v508z" />
    <glyph glyph-name="e" unicode="e" horiz-adv-x="1170" 
d="M597 978q-139 0 -224 -102t-95 -284h614q2 16 2 40q0 174 -79 260t-218 86zM1042 624q0 -84 -14 -154h-748q16 -166 105 -263t237 -97q108 0 176 31t134 107l72 -102q-76 -86 -169 -125t-241 -39t-260 83q-206 153 -206 471q0 238 121 405t353 167q200 0 320 -130
t120 -354z" />
    <glyph glyph-name="f" unicode="f" horiz-adv-x="700" 
d="M466 1350q-48 0 -71 -40t-23 -132v-90h226v-138h-226v-950h-152v950h-148v138h148v96q0 310 238 310q92 0 184 -46l-32 -132q-96 34 -144 34z" />
    <glyph glyph-name="g" unicode="g" horiz-adv-x="1180" 
d="M260 -156q0 -132 225 -132t358 70t133 152q0 106 -190 106h-358q-168 -72 -168 -196zM589 1000q-135 0 -215 -74t-80 -193t81 -193t214 -74t211 73t78 194t-77 194t-212 73zM464 168h348q316 0 316 -218q0 -148 -172 -257t-468 -109q-372 0 -372 244q0 152 158 238
q-110 52 -110 170q0 138 160 182q-174 102 -174 312q0 104 39 182t105 121q127 83 288 83q160 0 274 -66q66 12 91 30t25 49t-30 61l146 56q38 -38 38 -100q0 -130 -172 -184q72 -92 72 -230t-70 -227t-164 -122t-204 -33h-128q-68 0 -112 -24t-44 -66q0 -92 160 -92z" />
    <glyph glyph-name="h" unicode="h" horiz-adv-x="1166" 
d="M716 1104q146 0 222 -85t76 -241v-778h-152v766q0 192 -172 192q-190 0 -364 -174v-784h-152v1472h152v-528q170 160 390 160z" />
    <glyph glyph-name="i" unicode="i" horiz-adv-x="536" 
d="M344 0h-152v1088h152v-1088zM270 1288q-40 0 -70 29t-30 69t30 69t70 29t68 -29t28 -69t-28 -69t-68 -29z" />
    <glyph glyph-name="j" unicode="j" horiz-adv-x="578" 
d="M228 1088h154v-1226q0 -264 -288 -264q-32 0 -52 10l-2 142q12 -4 30 -4q84 0 121 30t37 108v1204zM306 1288q-40 0 -69 29t-29 69t29 69t69 29t69 -29t29 -69t-29 -69t-69 -29z" />
    <glyph glyph-name="k" unicode="k" horiz-adv-x="1086" 
d="M326 0h-152v1472h152v-952l472 568h190l-442 -516l492 -572h-186l-398 466l-128 -150v-316z" />
    <glyph glyph-name="l" unicode="l" horiz-adv-x="560" 
d="M332 -16q-180 0 -180 204v1284h154v-1276q0 -42 12 -59t44 -17q64 0 136 68l60 -110q-104 -94 -226 -94z" />
    <glyph glyph-name="m" unicode="m" horiz-adv-x="1796" 
d="M1354 1104q136 0 213 -85t77 -241v-778h-152v736q0 220 -188 220q-90 0 -164 -46t-152 -146v-764h-152v736q0 220 -186 220q-90 0 -165 -46t-153 -146v-764h-158v1088h158v-158q150 174 350 174q232 0 288 -194q78 94 163 144t221 50z" />
    <glyph glyph-name="n" unicode="n" horiz-adv-x="1158" 
d="M706 1104q146 0 223 -85t77 -241v-778h-154v766q0 192 -172 192q-184 0 -354 -164v-794h-152v1088h152v-136q170 152 380 152z" />
    <glyph glyph-name="o" unicode="o" 
d="M601 984q-137 0 -228 -108t-91 -332t91 -332t228 -108t228 108t91 332t-91 332t-228 108zM600 -30q-196 0 -334 143t-138 431t138 431t334 143t334 -143t138 -431t-138 -431t-334 -143z" />
    <glyph glyph-name="p" unicode="p" horiz-adv-x="1180" 
d="M602 124q136 0 217 109t81 313t-81 313t-218 109t-273 -164v-520q138 -160 274 -160zM636 1104q142 0 239 -82q177 -150 177 -473t-177 -478q-97 -85 -239 -85q-182 0 -308 138v-498h-154v1462h154v-120q124 136 308 136z" />
    <glyph glyph-name="q" unicode="q" horiz-adv-x="1182" 
d="M581 120q139 0 273 166v514q-136 164 -274 164t-219 -109t-81 -313t81 -313t220 -109zM1008 1088v-1462h-154v496q-122 -138 -310 -138q-142 0 -239 82q-177 150 -177 473t177 478q97 85 239 85q186 0 310 -140v126h154z" />
    <glyph glyph-name="r" unicode="r" horiz-adv-x="778" 
d="M624 1104q76 0 122 -18l-40 -146q-44 16 -110 16t-127 -44t-141 -150v-762h-154v1088h154v-168q120 184 296 184z" />
    <glyph glyph-name="s" unicode="s" horiz-adv-x="1008" 
d="M504 1104q242 0 372 -142l-78 -108q-102 122 -288 122q-108 0 -170 -44t-61 -123t66 -119t223 -63t249 -93t93 -216t-104 -240t-294 -94q-264 0 -428 182l78 110q74 -84 157 -124t196 -40t182 55t67 144t-70 131t-250 68q-306 46 -312 298q0 124 93 210t279 86z" />
    <glyph glyph-name="t" unicode="t" horiz-adv-x="714" 
d="M412 -16q-198 0 -198 200v766h-142v138h142v256h152v-256h266v-138h-266v-752q0 -80 66 -80q76 0 162 76l52 -112q-106 -98 -234 -98z" />
    <glyph glyph-name="u" unicode="u" horiz-adv-x="1156" 
d="M984 1088v-1088h-154v136q-166 -152 -380 -152q-146 0 -222 85t-76 241v778h154v-766q0 -192 172 -192q186 0 352 164v794h154z" />
    <glyph glyph-name="v" unicode="v" horiz-adv-x="998" 
d="M942 1088l-350 -1088h-188l-348 1088h152l290 -918l292 918h152z" />
    <glyph glyph-name="w" unicode="w" horiz-adv-x="1452" 
d="M1380 1088l-228 -1088h-188l-238 866l-238 -866h-190l-226 1088h152l180 -890l244 890h156l242 -886l182 886h152z" />
    <glyph glyph-name="x" unicode="x" horiz-adv-x="1056" 
d="M824 0l-306 456l-286 -456h-176l380 580l-340 508h178l268 -404l268 404h176l-360 -528l372 -560h-174z" />
    <glyph glyph-name="y" unicode="y" horiz-adv-x="1054" 
d="M1000 1088l-388 -1142q-66 -204 -153 -275t-275 -71l-48 144q150 0 216 40t100 150l24 72l-434 1082h166l340 -866l290 866h162z" />
    <glyph glyph-name="z" unicode="z" horiz-adv-x="1050" 
d="M930 138v-138h-810v122l620 828h-620v138h810v-122l-620 -828h620z" />
    <glyph glyph-name="braceleft" unicode="{" horiz-adv-x="790" 
d="M450 7q0 -93 63 -140t179 -69l-30 -114q-364 52 -364 312q0 74 19 200t19 178q0 178 -186 178h-46v138h46q186 0 186 178q0 52 -19 178t-19 198q0 260 364 314l30 -114q-116 -22 -179 -70t-63 -140t20 -218t20 -189t-39 -121t-101 -86q62 -26 101 -84t39 -121t-20 -189
t-20 -219z" />
    <glyph glyph-name="bar" unicode="|" horiz-adv-x="558" 
d="M354 1472v-1768h-150v1768h150z" />
    <glyph glyph-name="braceright" unicode="}" horiz-adv-x="790" 
d="M686 692v-138h-46q-186 0 -186 -178q0 -52 19 -178t19 -200q0 -260 -364 -314l-30 116q116 22 179 69t63 140t-20 219t-20 189t40 122t102 83q-62 26 -102 85t-40 122t20 189t20 218t-63 139t-179 71l30 114q364 -54 364 -314q0 -72 -19 -199t-19 -179q0 -176 186 -176
h46z" />
    <glyph glyph-name="asciitilde" unicode="~" 
d="M816 474q-92 0 -228 73t-218 73q-114 0 -220 -120l-54 118q134 140 286 140q90 0 226 -73t218 -73q112 0 220 120l54 -118q-134 -140 -284 -140z" />
    <glyph glyph-name="exclamdown" unicode="&#xa1;" horiz-adv-x="574" 
d="M368 -8h-162v538l24 568h114l24 -568v-538zM286 1488q40 0 69 -29t29 -69t-29 -68t-69 -28t-69 28t-29 68t29 69t69 29z" />
    <glyph glyph-name="cent" unicode="&#xa2;" 
d="M292 746q0 -210 73 -320t191 -140l70 902q-144 -8 -239 -120t-95 -322zM134 749q0 273 148 422t354 153l14 180h108l-14 -188q218 -34 320 -224l-114 -84q-64 144 -218 172l-70 -906q210 6 288 182l114 -84q-124 -230 -412 -234l-14 -168h-106l14 176q-184 34 -298 182
t-114 421z" />
    <glyph glyph-name="sterling" unicode="&#xa3;" 
d="M754 -62q-88 0 -230 42t-209 42t-163 -38l-66 122q206 166 206 352q0 90 -28 194h-174v136h134q-44 142 -44 268q0 200 110 318t318 118q302 0 446 -262l-120 -68q-58 108 -134 151t-194 43t-190 -74t-72 -203t50 -291h450v-136h-412q22 -82 22 -164q0 -196 -126 -328h24
q82 0 205 -39t224 -39t146 57t49 185h138q-2 -206 -93 -296t-267 -90z" />
    <glyph glyph-name="currency" unicode="&#xa4;" 
d="M226 742q0 -154 110 -264t264 -110t264 110t110 264t-110 264t-264 110t-264 -110t-110 -264zM1116 744q0 -170 -102 -308l164 -162l-104 -106l-162 164q-138 -106 -310 -106t-310 102l-162 -162l-106 106l162 164q-102 134 -102 305t104 313l-160 160l102 106l164 -164
q138 102 307 102t307 -102l164 164l106 -106l-164 -166q102 -134 102 -304z" />
    <glyph glyph-name="yen" unicode="&#xa5;" 
d="M1080 774v-138h-398v-198h398v-136h-398v-302h-162v302h-396v136h396v198h-396v138h322l-380 698h174l360 -680l360 680h174l-380 -698h326z" />
    <glyph glyph-name="brokenbar" unicode="&#xa6;" horiz-adv-x="558" 
d="M354 434v-734h-150v734h150zM354 1472v-734h-150v734h150z" />
    <glyph glyph-name="section" unicode="&#xa7;" horiz-adv-x="1268" 
d="M364 669q0 -95 70 -133t200 -59t184 -39q104 98 104 194t-80 137t-280 73q-40 8 -96 22q-102 -100 -102 -195zM1058 150q0 -160 -116 -257t-326 -97q-288 0 -458 194l80 116q86 -92 172 -134t216 -42t208 57t78 151t-81 140t-275 78q-178 34 -254 100t-76 198t132 256
q-126 76 -126 250q0 132 99 230t291 98q238 0 398 -150l-74 -120q-140 136 -322 136q-102 0 -172 -55t-70 -142t68 -130t247 -72t272 -94t93 -210t-130 -263q126 -78 126 -238z" />
    <glyph glyph-name="copyright" unicode="&#xa9;" horiz-adv-x="1834" 
d="M920 1054q-140 0 -221 -81t-81 -231t81 -231t218 -81t207 77q34 37 64 95l112 -68q-122 -228 -376 -236h-14q-172 0 -304 111t-132 333t132 333t304 111h14q254 -8 376 -236l-112 -68q-38 74 -89 115t-89 49t-90 8zM917 72q281 0 472 185t191 481t-191 480t-472 184
t-472 -184t-191 -480t191 -481t472 -185zM916 1504q324 0 549 -216t225 -552t-225 -551t-549 -215t-549 215t-225 551t225 552t549 216z" />
    <glyph glyph-name="guillemetleft" unicode="&#xab;" horiz-adv-x="1174" 
d="M792 630l292 -340l-124 -58l-358 398l358 398l124 -58zM330 630l294 -340l-126 -58l-358 398l358 398l126 -58z" />
    <glyph glyph-name="logicalnot" unicode="&#xac;" 
d="M130 710h940v-508h-148v368h-792v140z" />
    <glyph glyph-name="registered" unicode="&#xae;" 
d="M510 1032h138q76 0 76 72q0 34 -20 55t-56 21h-138v-148zM844 1116q0 -64 -30 -107t-78 -61l116 -210h-130l-100 198h-112v-198h-120v540h278q76 0 126 -49t50 -113zM604 590q178 0 301 117t123 302t-123 302t-300 117t-300 -117t-123 -302t122 -302t300 -117zM605 1516
q215 0 364 -143t149 -365t-149 -364t-365 -142t-364 142t-148 364t149 365t364 143z" />
    <glyph glyph-name="degree" unicode="&#xb0;" 
d="M600 978q86 0 147 60t61 146t-61 147t-147 61t-147 -61t-61 -147t61 -146t147 -60zM600 860q-134 0 -229 95t-95 229t95 229t229 95t229 -95t95 -229t-95 -229t-229 -95z" />
    <glyph glyph-name="plusminus" unicode="&#xb1;" 
d="M130 0v120h940v-120h-940zM672 780h398v-122h-398v-358h-140v358h-402v122h402v332h140v-332z" />
    <glyph glyph-name="paragraph" unicode="&#xb6;" horiz-adv-x="1222" 
d="M1168 1472v-132h-110v-1514h-136v1514h-174v-1514h-136v796q-222 4 -344 114t-122 313t127 313t355 110v-4h12v4h528z" />
    <glyph glyph-name="periodcentered" unicode="&#xb7;" horiz-adv-x="612" 
d="M226 524q-46 0 -77 32t-31 76t31 76t77 32t78 -32t32 -76t-32 -76t-78 -32z" />
    <glyph glyph-name="guillemetright" unicode="&#xbb;" horiz-adv-x="1174" 
d="M1034 630l-358 -398l-124 58l292 340l-292 342l124 56zM572 630l-358 -398l-124 58l292 340l-292 342l124 56z" />
    <glyph glyph-name="questiondown" unicode="&#xbf;" horiz-adv-x="1040" 
d="M608 1000q0 -144 -158 -270q-126 -104 -174 -173t-48 -184t83 -181t205 -66q220 0 338 208l122 -70q-68 -124 -186 -198t-280 -74q-214 0 -329 107t-115 266t60 252t206 206t146 221q0 36 -16 84h120q26 -74 26 -128zM502 1516q46 0 77 -32t31 -76t-31 -76t-77 -32
t-77 32t-31 76t31 76t77 32z" />
    <glyph glyph-name="multiply" unicode="&#xd7;" 
d="M1116 1088l-416 -416l416 -418l-100 -98l-416 416l-416 -416l-100 100l416 416l-416 414l100 100l416 -416l416 416z" />
    <glyph glyph-name="divide" unicode="&#xf7;" 
d="M521 156q-45 0 -77 32t-32 76t32 76t77 32t77 -32t32 -76t-32 -76t-77 -32zM116 710h968v-140h-968v140zM521 910q-45 0 -77 31t-32 77t32 77t77 31t77 -32t32 -76t-32 -76t-77 -32z" />
    <glyph glyph-name="Pi" unicode="&#x3a0;" horiz-adv-x="1364" 
d="M1056 -16q-182 0 -182 204v828h-512v-1016h-152v1016h-182v136h1180v-136h-180v-820q0 -42 13 -59t45 -17q62 0 134 68l60 -110q-104 -94 -224 -94z" />
    <glyph glyph-name="endash" unicode="&#x2013;" 
d="M1080 682v-138h-960v138h960z" />
    <glyph glyph-name="emdash" unicode="&#x2014;" horiz-adv-x="1740" 
d="M1636 682v-138h-1530v138h1530z" />
    <glyph glyph-name="quoteleft" unicode="&#x2018;" horiz-adv-x="466" 
d="M174 1220q0 124 128 288l112 -34q-82 -128 -82 -182q0 -46 66 -46l-62 -168q-162 18 -162 142z" />
    <glyph glyph-name="quoteright" unicode="&#x2019;" horiz-adv-x="386" 
d="M320 1344q0 -124 -128 -284l-112 34q80 122 80 180q0 48 -64 48l62 168q162 -22 162 -146z" />
    <glyph glyph-name="quotesinglbase" unicode="&#x201a;" horiz-adv-x="426" 
d="M312 25q0 -125 -128 -285l-112 32q80 126 80 182q0 46 -64 46l62 168q162 -18 162 -143z" />
    <glyph glyph-name="quotedblleft" unicode="&#x201c;" horiz-adv-x="944" 
d="M590 1222q0 120 126 286l112 -34q-80 -130 -80 -182q0 -46 64 -46l-60 -168q-162 18 -162 144zM174 1220q0 124 128 288l112 -34q-82 -128 -82 -182q0 -46 66 -46l-62 -168q-162 18 -162 142z" />
    <glyph glyph-name="quotedblright" unicode="&#x201d;" horiz-adv-x="944" 
d="M770 1346q0 -124 -128 -284l-112 34q80 122 80 180q0 46 -64 46l62 170q162 -22 162 -146zM352 1347q0 -123 -126 -285l-112 34q80 126 80 180q0 46 -66 46l62 170q162 -22 162 -145z" />
    <glyph glyph-name="quotedblbase" unicode="&#x201e;" horiz-adv-x="912" 
d="M738 24q0 -126 -126 -284l-112 32q80 126 80 182q0 46 -64 46l62 168q160 -18 160 -144zM320 24q0 -126 -126 -284l-112 32q80 126 80 182q0 46 -64 46l62 168q160 -18 160 -144z" />
    <glyph glyph-name="dagger" unicode="&#x2020;" horiz-adv-x="648" 
d="M610 1242v-122l-238 12l14 -250l-18 -494h-88l-18 494l14 250l-238 -12v122l238 -12l-14 242h124l-14 -242z" />
    <glyph glyph-name="daggerdbl" unicode="&#x2021;" horiz-adv-x="650" 
d="M612 742v-122l-240 12l16 -244h-126l14 244l-236 -12l-2 122l238 -12l-12 200l12 202l-238 -12v122l238 -12l-14 242h124l-14 -242l238 12v-122l-238 12l12 -202l-10 -200z" />
    <glyph glyph-name="bullet" unicode="&#x2022;" horiz-adv-x="960" 
d="M480 420q-110 0 -188 77t-78 187v4q0 108 80 186t186 78t186 -78t80 -186v-4q0 -110 -78 -187t-188 -77z" />
    <glyph glyph-name="perthousand" unicode="&#x2030;" horiz-adv-x="2468" 
d="M2028 102q86 0 146 60t60 146t-60 146t-146 60t-146 -60t-60 -146t60 -146t146 -60zM1240 102q86 0 146 60t60 146t-60 146t-146 60t-145 -60t-59 -146t59 -146t145 -60zM2028 -16q-134 0 -229 95t-95 229t95 229t229 95t229 -95t95 -229t-95 -229t-229 -95zM1240 -16
q-134 0 -229 95t-95 229t95 229t229 95t229 -95t95 -229t-95 -229t-229 -95zM450 962q86 0 146 60t60 146t-60 146t-146 60t-146 -60t-60 -146t60 -146t146 -60zM1324 1472h158l-1114 -1472h-158zM450 844q-134 0 -229 95t-95 229t95 229t229 95t229 -95t95 -229t-95 -229
t-229 -95z" />
    <glyph glyph-name="guilsinglleft" unicode="&#x2039;" horiz-adv-x="712" 
d="M330 630l294 -340l-126 -58l-358 398l358 398l126 -58z" />
    <glyph glyph-name="guilsinglright" unicode="&#x203a;" horiz-adv-x="712" 
d="M572 630l-358 -398l-124 58l292 340l-292 342l124 56z" />
    <glyph glyph-name="fraction" unicode="&#x2044;" 
d="M1160 1472l-1006 -1472h-112l1006 1472h112z" />
    <glyph glyph-name="euro" unicode="&#x20ac;" 
d="M718 120q234 0 344 158l92 -110q-142 -198 -430 -198q-194 0 -361 129t-225 393h-112v130h94q-6 56 -6 106t4 122h-92v130h112q56 266 223 395t363 129q288 0 430 -198l-92 -112q-64 92 -148 126t-209 34t-238 -97t-161 -277h648v-130h-670q-6 -50 -6 -110t6 -118h670
v-130h-646q50 -180 162 -276t248 -96z" />
    <glyph glyph-name="trademark" unicode="&#x2122;" horiz-adv-x="1836" 
d="M1680 1472v-890h-138v662l-264 -438h-24l-270 440v-664h-138v890h150l270 -444l266 444h148zM30 1472h702v-122h-282v-768h-138v768h-282v122z" />
    <glyph glyph-name="arrowleft" unicode="&#x2190;" horiz-adv-x="1224" 
d="M1152 818v-140h-798q162 -136 280 -332l-130 -58q-86 150 -192 255t-254 199v16q296 184 446 454l130 -58q-122 -202 -286 -336h804z" />
    <glyph glyph-name="arrowup" unicode="&#x2191;" horiz-adv-x="1034" 
d="M586 198h-140v798q-136 -162 -332 -280l-58 130q150 86 255 192t199 254h14q94 -148 199 -254t255 -192l-58 -130q-202 124 -334 282v-800z" />
    <glyph glyph-name="arrowright" unicode="&#x2192;" horiz-adv-x="1214" 
d="M62 680v140h798q-158 132 -278 332l128 58q86 -150 193 -255t253 -199v-16q-292 -182 -446 -454l-128 58q120 202 284 336h-804z" />
    <glyph glyph-name="arrowdown" unicode="&#x2193;" horiz-adv-x="1034" 
d="M448 1300h140v-798q136 162 332 280l58 -130q-150 -86 -255 -192t-199 -254h-14q-94 148 -199 254t-255 192l58 130q202 -124 334 -282v800z" />
    <glyph glyph-name="arrowboth" unicode="&#x2194;" horiz-adv-x="1888" 
d="M1254 1152l130 58q86 -150 192 -255t254 -199v-16q-148 -94 -254 -199t-192 -255l-130 58q124 202 282 334h-1182q162 -136 280 -332l-130 -58q-86 150 -192 255t-254 199v16q296 184 446 454l130 -58q-122 -202 -286 -336h1188q-158 132 -282 334z" />
    <glyph glyph-name="arrowupdown" unicode="&#x2195;" horiz-adv-x="1184" 
d="M662 1302v-1160q134 160 334 280l58 -130q-152 -84 -257 -191t-199 -253h-14q-94 146 -199 253t-255 191l58 130q208 -128 334 -282v1158q-132 -158 -332 -278l-58 130q150 84 255 191t199 253h14q94 -146 199 -253t255 -191l-58 -130q-208 128 -334 282z" />
    <glyph glyph-name="partialdiff" unicode="&#x2202;" 
d="M592 120q152 0 232 118t80 302l-2 72q-158 148 -336 148q-272 0 -272 -316q0 -148 73 -236t225 -88zM1064 572q0 -290 -123 -441t-335 -151t-338 123t-126 341t105 334t300 116t339 -126q-48 277 -203 414q-133 117 -333 188l58 120q656 -198 656 -918z" />
    <glyph glyph-name="emptyset" unicode="&#x2205;" 
d="M930 544q0 162 -50 266l-504 -614q88 -96 228 -96t233 110t93 334zM270 544q0 -142 42 -242l498 606q-82 80 -217 80t-229 -110t-94 -334zM1082 544q0 -288 -141 -431t-334 -143t-323 118l-92 -114h-150l168 204q-92 144 -92 366q0 288 141 431t327 143t312 -102l82 98
h148l-150 -184q104 -146 104 -386z" />
    <glyph glyph-name="product" unicode="&#x220f;" horiz-adv-x="1238" 
d="M1214 1328h-232v-1328h-156v1328h-432v-1328h-156v1328h-208v144h1184v-144z" />
    <glyph glyph-name="summation" unicode="&#x2211;" 
d="M1138 144v-144h-1014v110l676 626l-676 626v110h1008v-144h-740l614 -578v-28l-614 -578h746z" />
    <glyph glyph-name="minus" unicode="&#x2212;" 
d="M130 710h940v-140h-940v140z" />
    <glyph glyph-name="radical" unicode="&#x221a;" horiz-adv-x="1276" 
d="M30 952v136h384l286 -900l400 1284h148l-458 -1472h-182l-302 952h-276z" />
    <glyph glyph-name="integral" unicode="&#x222b;" 
d="M929 1350q-49 0 -78 -39t-47 -133l-74 -390h272v-136h-298l-142 -744q-56 -310 -300 -310q-92 0 -176 44l56 134q74 -34 130 -34t86 39t48 131l140 740h-298v136h324l74 396q58 310 298 310q96 0 180 -46l-58 -132q-88 34 -137 34z" />
    <glyph glyph-name="approxequal" unicode="&#x2248;" 
d="M816 332q-92 0 -228 73t-218 73q-114 0 -220 -120l-54 118q134 140 286 140q90 0 226 -73t218 -73q112 0 220 120l54 -118q-134 -140 -284 -140zM816 798q-92 0 -228 72t-218 72q-114 0 -220 -120l-54 120q132 138 286 138q90 0 226 -73t218 -73q110 0 220 122l54 -120
q-132 -138 -284 -138z" />
    <glyph glyph-name="notequal" unicode="&#x2260;" 
d="M1070 854h-342l-118 -314h460v-140h-514l-114 -306h-146l114 306h-280v140h334l118 314h-452v140h504l118 316h146l-118 -316h290v-140z" />
    <glyph glyph-name="lessequal" unicode="&#x2264;" 
d="M90 120h1020v-120h-1020v120zM1108 474v-138l-1020 348v168l1020 348v-138l-856 -294z" />
    <glyph glyph-name="greaterequal" unicode="&#x2265;" 
d="M90 120h1020v-120h-1020v120zM1108 852v-168l-1020 -348v138l856 294l-856 294v138z" />
    <glyph glyph-name="lozenge" unicode="&#x25ca;" 
d="M984 736l-384 566l-386 -566l386 -566zM1136 736l-518 -766h-38l-518 766l518 768h38z" />
    <glyph glyph-name="J.ss03" horiz-adv-x="860" 
d="M760 1472v-1066q0 -212 -109 -324t-311 -112t-312 82l46 138q104 -78 243 -78t209 69t70 225v918h-338v148h502z" />
    <glyph glyph-name="g.ss01" horiz-adv-x="1164" 
d="M562 128q144 0 272 160v512q-142 168 -280 168t-217 -108t-79 -312t80 -312t224 -108zM984 1088v-1074q0 -226 -110 -321t-308 -95t-386 122l56 124q180 -118 314 -118t209 56t75 200v146q-130 -132 -308 -132q-112 0 -195 46t-131 125q-94 155 -94 381q0 326 176 476
q96 82 236 82q190 0 316 -144v126h150z" />
    <glyph glyph-name="a.ss02" horiz-adv-x="1178" 
d="M579 120q137 0 273 164v520q-138 160 -274 160t-217 -109t-81 -313t81 -313t218 -109zM852 1088h152v-1088h-152v120q-124 -136 -308 -136q-142 0 -239 82q-177 150 -177 473t177 478q97 85 239 85q182 0 308 -138v124z" />
    <glyph glyph-name="f_i" horiz-adv-x="1194" 
d="M928 1288q-40 0 -70 29t-30 69t30 69t70 29t68 -29t28 -69t-28 -69t-68 -29zM386 1088h616v-1088h-152v950h-464v-950h-154v950h-142v138h142v96q0 310 238 310q76 0 176 -42l-22 -134q-90 32 -141 31t-74 -40t-23 -131v-90z" />
    <glyph glyph-name="A.sc" horiz-adv-x="1170" 
d="M862 566v176q0 136 -70 214t-209 78t-209 -78t-70 -214v-176h558zM566 1168h34q198 0 307 -109t109 -323v-736h-154v430h-558v-430h-154v734q0 214 109 324t307 110z" />
    <glyph glyph-name="B.sc" horiz-adv-x="1138" 
d="M326 130h328q262 0 262 206q0 84 -71 138t-193 54h-326v-398zM326 1024v-366h306q94 0 169 51t75 145t-65 132t-145 38h-340zM1058 326q0 -164 -108 -245t-290 -81h-486v1152h524q130 0 226 -74t96 -206q0 -188 -184 -268q102 -28 162 -98t60 -180z" />
    <glyph glyph-name="C.sc" horiz-adv-x="1094" 
d="M626 118q216 0 298 172l94 -102q-116 -206 -394 -206q-222 0 -367 151t-145 445q0 150 44 267t118 185q150 138 350 138q280 0 394 -204l-94 -102q-80 170 -298 170q-152 0 -254 -112t-102 -345t102 -345t254 -112z" />
    <glyph glyph-name="D.sc" horiz-adv-x="1174" 
d="M326 134h178q168 0 286 111t118 335t-117 332t-287 108h-178v-886zM1062 579q0 -287 -157 -431t-391 -148h-340v1152h340q252 -4 400 -145t148 -428z" />
    <glyph glyph-name="E.sc" horiz-adv-x="1124" 
d="M972 132v-132h-798v1152h772v-132h-620v-352h572v-126h-572v-410h646z" />
    <glyph glyph-name="F.sc" horiz-adv-x="1058" 
d="M326 1016v-358h572v-132h-572v-526h-152v1152h772v-136h-620z" />
    <glyph glyph-name="G.sc" horiz-adv-x="1174" 
d="M1104 612v-120h-70v-314q-146 -196 -388 -196t-388 151t-146 445q0 150 44 267t118 185q150 138 352 138q280 0 398 -204l-94 -100q-82 172 -304 172q-152 0 -254 -114t-102 -348t102 -348t266 -114t258 126v254h-270v120h478z" />
    <glyph glyph-name="H.sc" horiz-adv-x="1180" 
d="M1008 1140v-1152h-154v548h-528v-536h-152v1152h152v-482h528v470h154z" />
    <glyph glyph-name="I.sc" horiz-adv-x="834" 
d="M482 1016v-880h244v-136h-620v136h222v880h-222v136h620v-136h-244z" />
    <glyph glyph-name="J.sc" horiz-adv-x="842" 
d="M686 1152v-848q0 -154 -80 -240t-226 -86q-210 0 -326 184l114 90q84 -138 206 -138q76 0 118 46t42 132v860h152z" />
    <glyph glyph-name="K.sc" horiz-adv-x="1104" 
d="M330 0h-156v1152h156v-602l476 602h188l-434 -540l488 -612h-190l-390 498l-138 -172v-326z" />
    <glyph glyph-name="L.sc" horiz-adv-x="896" 
d="M882 138v-138h-708v1152h152v-1014h556z" />
    <glyph glyph-name="M.sc" horiz-adv-x="1368" 
d="M1194 1152v-1152h-152v910l-350 -530h-14l-352 530v-910h-152v1152h158l352 -532l354 532h156z" />
    <glyph glyph-name="N.sc" horiz-adv-x="1222" 
d="M1048 1152v-1152h-152l-568 904v-904h-152v1152h166l554 -874v874h152z" />
    <glyph glyph-name="O.sc" horiz-adv-x="1228" 
d="M614 1048q-146 0 -246 -116t-100 -348t101 -350t245 -118t245 118t101 350t-100 348t-246 116zM614 -18q-98 0 -184 33t-159 102t-116 190t-43 279t43 277t116 186t159 100t184 33t184 -33t159 -100t116 -186t43 -277t-43 -279t-116 -190t-159 -102t-184 -33z" />
    <glyph glyph-name="P.sc" horiz-adv-x="992" 
d="M326 550h262q100 0 167 55t67 180t-68 180t-166 55h-262v-470zM174 1152h422q184 0 282 -101t98 -267t-98 -266t-282 -100h-270v-418h-152v1152z" />
    <glyph glyph-name="Q.sc" horiz-adv-x="1236" 
d="M622 116q62 0 120 24l-74 152h154l34 -70q112 126 112 360t-100 350t-246 116t-246 -116t-100 -348t101 -350t245 -118zM1124 588q0 -352 -200 -508l74 -150h-154l-40 84q-84 -32 -182 -32t-184 33t-160 102t-117 190t-43 279t43 277t117 186t160 100t184 33t184 -33
t159 -100t116 -186t43 -275z" />
    <glyph glyph-name="R.sc" horiz-adv-x="1114" 
d="M326 550h262q100 0 167 55t67 180t-68 180t-166 55h-262v-470zM326 418v-418h-152v1152h422q184 0 282 -101t98 -267q0 -122 -55 -211t-159 -127l248 -446h-172l-232 418h-280z" />
    <glyph glyph-name="S.sc" horiz-adv-x="1108" 
d="M178 836q0 136 102 234t294 98q120 0 214 -32t184 -118l-78 -120q-132 138 -318 138q-100 0 -168 -56t-68 -140t64 -121t241 -66t271 -101t94 -224t-117 -249t-327 -97q-286 0 -456 194l82 114q152 -174 392 -174q120 0 194 56t74 148t-74 132t-264 70q-182 34 -259 106
t-77 208z" />
    <glyph glyph-name="T.sc" horiz-adv-x="976" 
d="M890 1152v-136h-326v-1016h-152v1016h-324v136h802z" />
    <glyph glyph-name="U.sc" horiz-adv-x="1170" 
d="M1018 1152v-734q0 -214 -109 -324t-307 -110h-34q-198 0 -307 109t-109 323v736h154v-742q0 -136 70 -214t209 -78t209 78t70 214v742h154z" />
    <glyph glyph-name="V.sc" horiz-adv-x="1080" 
d="M1024 1152l-390 -1152h-188l-390 1152h152l330 -960l334 960h152z" />
    <glyph glyph-name="W.sc" horiz-adv-x="1490" 
d="M1434 1152l-246 -1152h-186l-262 914l-230 -914h-186l-268 1152h172l196 -922l232 922h168l264 -928l196 928h150z" />
    <glyph glyph-name="X.sc" horiz-adv-x="1028" 
d="M614 576l358 -576h-186l-272 438l-274 -438h-184l368 582l-354 570h186l268 -432l264 432h184z" />
    <glyph glyph-name="Y.sc" horiz-adv-x="1124" 
d="M636 0h-154v496l-426 656h176l326 -512l326 512h176l-424 -656v-496z" />
    <glyph glyph-name="Z.sc" horiz-adv-x="1060" 
d="M952 136v-136h-846v116l654 902h-636v134h828v-116l-646 -900h646z" />
    <glyph glyph-name="J.sc.ss03" horiz-adv-x="826" 
d="M684 1152v-844q0 -158 -78 -244t-229 -86t-263 72l44 136q106 -74 196 -74t134 48t44 132v728h-328v132h480z" />
    <glyph glyph-name="zero.tf" 
d="M606 1356q-134 0 -227 -150t-93 -469t93 -470t227 -151q316 0 316 620t-316 620zM605 -22q-215 0 -346 188t-131 571t131 570t346 187t346 -187t131 -570t-131 -571t-346 -188z" />
    <glyph glyph-name="one.tf" 
d="M1068 136v-136h-926v136h434v1082q-130 -132 -332 -186l-36 144q114 26 224 107t184 189h120v-1336h332z" />
    <glyph glyph-name="two.tf" 
d="M326 136h740v-136h-902q-2 44 -2 130q0 180 64 265t264 229l24 18q32 24 102 74t93 67t68 55t60 59t43 64t28 147t-81 174t-217 70q-214 0 -332 -196l-120 82q66 114 185 182t269 68q232 0 343 -114t111 -283t-105 -283q-57 -62 -139 -127t-125 -94q-250 -169 -309 -239
q-58 -70 -62 -192v-20z" />
    <glyph glyph-name="three.tf" 
d="M1086 404q0 -182 -119 -303t-363 -121q-180 0 -292 70t-192 204l110 94q78 -128 159 -178t222 -50t229 73t88 214t-125 217t-299 78q-72 0 -110 -6l18 146q36 -4 119 -4t163 23t142 89t62 170t-77 170t-202 66t-201 -42t-160 -146l-100 102q180 224 454 224
q214 0 331 -111t117 -265q0 -248 -276 -344q140 -44 221 -140t81 -230z" />
    <glyph glyph-name="four.tf" 
d="M774 534v426q0 104 8 348l-482 -774h474zM1098 400h-164v-400h-160v400h-654v118l610 952h204v-936h164v-134z" />
    <glyph glyph-name="five.tf" 
d="M649 918q179 0 306 -124t127 -337t-128 -349t-372 -136q-166 0 -277 76t-193 228l124 76q66 -128 151 -184t218 -56t226 90t93 248t-87 246t-244 88t-291 -108l-122 24v772h816v-136h-656v-492q130 74 309 74z" />
    <glyph glyph-name="six.tf" 
d="M632 120q136 0 206 94t70 243t-72 236t-198 87q-172 0 -336 -178q38 -482 330 -482zM648 918q194 0 306 -123t112 -338t-123 -346t-299 -131q-508 0 -508 772q0 206 44 356t121 231q147 155 359 155q136 0 218 -50t152 -150l-120 -82q-52 78 -110 111t-138 33
q-174 0 -269 -154t-97 -438q158 154 352 154z" />
    <glyph glyph-name="seven.tf" 
d="M1070 1470v-106q-252 -264 -360 -576t-108 -616q0 -100 4 -172h-168q0 396 89 715t335 619h-738v136h946z" />
    <glyph glyph-name="eight.tf" 
d="M609 114q127 0 215 81t88 218t-89 223t-215 86t-218 -87t-92 -223t92 -217t219 -81zM606 1362q-112 0 -191 -62t-79 -185t83 -192t186 -69t186 68t83 191t-78 186t-190 63zM1072 410q0 -198 -136 -314t-331 -116t-331 115t-136 315q0 134 66 232t174 150q-90 50 -143 134
t-53 200t69 205q126 163 355 163q160 0 291 -97t131 -279q0 -108 -53 -192t-143 -134q108 -52 174 -150t66 -232z" />
    <glyph glyph-name="nine.tf" 
d="M564 698q174 0 336 178q-38 480 -330 480q-136 0 -206 -93t-70 -242t72 -236t198 -87zM558 1498q508 0 508 -772q0 -206 -44 -356t-121 -231q-147 -155 -359 -155q-138 0 -219 49t-151 151l120 80q52 -78 110 -111t138 -33q176 0 270 154t96 440q-160 -156 -353 -156
t-305 123t-112 339t123 347t299 131z" />
    <glyph glyph-name="bracketright.001" horiz-adv-x="758" 
d="M92 1526h520v-1838h-520v134h358v1570h-358v134z" />
    <glyph glyph-name="braceleft.cap" horiz-adv-x="830" 
d="M492 238q0 -106 63 -153t179 -69l-30 -114q-364 54 -364 312q0 44 18 137t18 141q0 174 -184 174h-46v140h46q184 0 184 174q0 56 -18 146t-18 132q0 258 364 312l30 -114q-116 -22 -179 -69t-63 -153q0 -50 19 -139t19 -154t-39 -122t-101 -83q62 -26 101 -84t39 -119
t-19 -153t-19 -142z" />
    <glyph glyph-name="braceright.cap" horiz-adv-x="826" 
d="M640 806v-140h-46q-131 0 -167 -80q-17 -38 -17 -94t18 -145t18 -131q0 -260 -364 -314l-30 114q116 22 179 70t63 154q0 50 -20 138t-20 153t39 122t103 83q-64 26 -103 83t-39 119t20 154t20 142q0 106 -63 153t-179 69l30 114q364 -52 364 -312q0 -42 -18 -136
t-18 -146q0 -110 64 -144q49 -26 120 -26h46z" />
    <glyph glyph-name="bracketleft.cap" horiz-adv-x="758" 
d="M666 1442h-364v-1412h364v-134h-520v1680h520v-134z" />
    <glyph glyph-name="bracketright.cap" horiz-adv-x="758" 
d="M92 1576h520v-1680h-520v134h364v1412h-364v134z" />
    <glyph glyph-name="parenleft.cap" horiz-adv-x="810" 
d="M300 768q0 -528 410 -806l-58 -132q-82 52 -148 105t-137 137q-231 273 -231 695t231 695q71 84 137 137t148 105l58 -132q-410 -276 -410 -804z" />
    <glyph glyph-name="parenright.cap" horiz-adv-x="808" 
d="M672 787q0 -171 -31 -305t-80 -229t-120 -179t-138 -138t-149 -104l-56 132q408 278 408 805t-408 805l56 132q104 -64 186 -138t163 -185t125 -268t44 -328z" />
    <glyph glyph-name="period_period_period" horiz-adv-x="1566" 
d="M956 202q42 0 74 -32t32 -76t-32 -76t-74 -32t-70 22q-32 -22 -73 -22t-72 31t-31 77t31 77t72 31t73 -22q28 22 70 22zM342 202q46 0 77 -31t31 -77t-31 -77t-77 -31t-77 31t-31 77t31 77t77 31z" />
    <glyph glyph-name="ampersand.ss04" horiz-adv-x="1324" 
d="M1046 892h298v-134h-138v-610q-76 -78 -220 -128t-320 -50q-284 0 -437 120t-153 336q0 152 86 262t252 148q-100 34 -163 111t-63 181q0 154 120 259t346 105q296 0 450 -218l-128 -84q-106 168 -320 168q-136 0 -221 -65t-85 -173t90 -168t262 -60h88v-134h-108
q-230 0 -339 -88t-109 -237t113 -238t326 -89t373 100v686z" />
    </font>
</defs>
</svg>
